<svg xmlns="http://www.w3.org/2000/svg" width="225" height="225" viewBox="0 0 225 225">
<g>
<path d="M 203.72 216.01 C198.24,218.43 187.63,219.36 181.15,217.99 C172.15,216.09 164.04,209.39 162.04,202.22 C161.43,200.00 161.02,185.22 161.04,165.50 C161.06,135.93 161.22,132.71 162.57,134.49 C163.83,136.16 164.07,141.45 164.07,167.49 C164.07,184.54 164.21,199.62 164.38,201.00 C164.92,205.25 166.17,208.00 167.58,208.00 C168.32,208.00 170.61,209.46 172.66,211.25 C174.71,213.04 176.00,213.82 175.52,213.00 C175.02,212.12 175.59,212.32 176.91,213.48 C178.42,214.81 180.87,215.54 184.33,215.70 C187.18,215.84 190.77,216.24 192.33,216.60 C194.40,217.09 195.94,216.68 198.10,215.09 C199.72,213.89 201.60,213.22 202.27,213.60 C203.11,214.08 203.19,213.95 202.50,213.22 C201.95,212.62 199.31,211.89 196.64,211.58 C187.11,210.48 183.98,209.00 182.31,204.82 C181.47,202.72 180.47,201.00 180.09,201.00 C179.70,201.00 179.28,199.09 179.14,196.75 C179.01,194.41 178.47,192.07 177.95,191.55 C177.40,191.00 177.00,178.64 177.00,161.95 C177.00,135.47 177.14,133.18 178.83,131.65 C180.34,130.29 183.01,130.00 194.25,130.00 C209.18,130.00 211.00,129.67 211.00,126.94 C211.00,125.64 210.02,124.91 207.70,124.47 C203.99,123.78 185.47,124.59 183.97,125.52 C183.44,125.85 183.00,125.64 183.00,125.06 C183.00,124.48 181.88,124.00 180.50,124.00 C178.04,124.00 177.40,122.57 177.82,118.00 C178.70,108.61 178.82,99.75 178.05,100.96 C177.40,101.99 177.03,100.96 176.81,97.47 C176.57,93.56 176.10,92.44 174.62,92.16 C173.06,91.86 172.83,92.28 173.23,94.65 C173.50,96.22 174.08,98.36 174.53,99.41 C175.10,100.76 175.00,101.12 174.18,100.61 C173.45,100.16 173.22,100.41 173.56,101.29 C173.85,102.05 173.40,103.26 172.55,103.96 C171.70,104.67 171.00,106.16 171.00,107.29 C171.00,108.41 170.71,109.05 170.36,108.69 C170.01,108.34 168.84,109.84 167.76,112.03 C166.67,114.23 165.06,116.01 164.15,116.02 C162.71,116.03 162.69,116.17 164.00,117.11 C165.30,118.05 165.29,118.12 163.90,117.68 C163.02,117.41 161.10,118.21 159.62,119.48 C158.15,120.74 155.61,122.33 153.99,123.01 C152.36,123.68 151.31,124.70 151.67,125.27 C152.02,125.84 151.83,126.01 151.24,125.65 C149.56,124.61 147.17,125.97 147.46,127.82 C147.66,129.16 148.84,129.50 153.26,129.50 C162.53,129.50 160.81,130.83 151.09,131.18 L 142.00 131.50 L 142.00 128.46 C142.00,125.62 142.40,125.29 147.72,123.65 C155.87,121.14 159.63,118.51 164.49,111.91 C168.77,106.09 171.23,99.00 172.52,88.75 C173.12,84.05 173.16,84.00 176.81,84.00 L 180.50 84.00 L 180.50 122.50 L 198.02 122.77 L 215.55 123.04 L 214.79 131.00 L 179.97 131.00 L 180.38 164.75 C180.81,200.53 180.84,201.00 182.23,201.00 C182.72,201.00 182.87,201.41 182.56,201.91 C182.25,202.40 184.10,204.20 186.67,205.91 C194.84,211.31 203.29,209.73 209.47,201.63 C212.52,197.63 215.00,190.32 215.00,185.34 C215.00,182.67 215.40,182.00 217.00,182.00 C218.86,182.00 219.00,182.67 219.00,191.55 C219.00,197.85 218.52,202.02 217.58,203.80 C215.34,208.06 208.93,213.71 203.72,216.01 ZM 0.00 48.00 L 0.00 41.04 L 2.75 40.38 C15.52,37.31 25.44,25.33 27.93,9.98 C28.08,9.09 28.22,8.27 28.35,7.53 C28.93,4.20 29.26,2.33 28.47,1.28 C27.78,0.35 26.20,0.07 23.13,0.00 L 37.00 0.00 L 37.00 39.00 L 72.00 39.00 L 72.00 47.00 L 59.25 46.79 L 46.50 46.58 L 56.69 46.25 C65.78,45.97 66.95,45.72 67.51,43.97 C67.85,42.90 67.85,41.57 67.52,41.02 C67.14,40.42 60.88,40.12 51.48,40.27 C36.66,40.49 35.97,40.41 33.81,38.25 C32.57,37.01 32.06,36.00 32.69,36.00 C33.45,36.00 33.84,32.66 33.90,25.75 C34.00,11.95 33.02,0.00 31.78,0.00 C31.22,0.00 31.03,0.99 31.34,2.20 C31.66,3.41 31.43,4.98 30.84,5.70 C30.24,6.41 29.64,9.14 29.50,11.76 C29.00,21.03 20.16,35.55 13.78,37.57 C12.61,37.94 10.75,39.09 9.64,40.12 C8.53,41.16 7.09,42.00 6.43,42.00 C5.78,42.00 4.70,42.66 4.03,43.46 C3.04,44.66 3.29,45.03 5.46,45.58 C6.92,45.95 10.27,45.96 12.92,45.61 C16.31,45.16 18.05,45.35 18.81,46.27 C19.54,47.15 19.95,59.67 20.07,84.29 C20.17,104.48 20.57,121.00 20.95,121.00 C21.33,121.00 23.39,122.75 25.52,124.89 C27.92,127.31 29.98,128.58 30.94,128.23 C31.80,127.93 32.16,128.06 31.74,128.52 C31.32,128.98 32.67,129.95 34.74,130.68 C38.81,132.11 54.00,132.08 54.00,130.64 C54.00,130.17 54.69,130.05 55.54,130.38 C56.41,130.71 57.32,130.33 57.64,129.48 C57.96,128.67 58.64,128.00 59.17,128.00 C59.69,128.00 59.85,128.43 59.52,128.96 C59.17,129.53 60.17,129.49 61.96,128.86 C63.63,128.28 64.77,127.43 64.48,126.97 C64.20,126.51 64.42,125.86 64.98,125.51 C66.62,124.50 66.15,123.43 64.07,123.43 C63.01,123.43 62.41,123.86 62.74,124.38 C63.07,124.92 62.62,125.07 61.69,124.71 C60.79,124.37 59.48,124.66 58.77,125.37 C57.25,126.90 47.74,126.75 44.00,125.14 C40.41,123.60 37.00,120.43 37.00,118.64 C37.00,117.79 36.34,116.73 35.53,116.28 C34.30,115.59 34.05,110.76 33.94,85.98 C33.93,84.65 33.93,83.36 33.92,82.12 C33.79,51.90 33.78,48.41 34.85,48.04 C34.99,47.99 35.15,47.99 35.33,48.00 C35.38,48.00 35.44,48.00 35.50,48.00 C36.80,48.00 37.00,52.39 37.00,81.50 C37.00,99.93 36.99,115.23 36.98,115.52 C36.97,115.81 38.09,117.26 39.48,118.76 C40.87,120.26 42.00,121.99 42.00,122.61 C42.00,123.88 47.38,124.97 53.67,124.99 C59.71,125.00 67.39,118.59 66.37,114.39 C66.00,112.87 66.40,112.13 67.79,111.77 C69.11,111.42 69.94,110.03 70.41,107.38 C71.54,100.88 72.97,98.24 75.66,97.73 C77.25,97.42 78.36,97.76 78.70,98.67 C80.79,104.10 71.60,126.57 67.35,126.43 C66.02,126.39 65.39,126.84 65.69,127.62 C65.97,128.38 64.03,129.99 60.83,131.65 C56.12,134.10 54.40,134.43 46.00,134.46 C38.16,134.49 35.60,134.09 31.37,132.17 C25.66,129.60 20.41,124.76 21.47,123.06 C21.84,122.44 21.59,122.07 20.90,122.23 C17.91,122.89 17.15,114.81 17.08,81.25 L 17.00 48.00 ZM 71.00 115.00 C71.00,115.61 71.45,115.84 72.00,115.50 C73.23,114.74 73.33,112.00 72.12,112.00 C71.64,112.00 70.63,112.76 69.87,113.69 C68.94,114.84 68.90,115.14 69.75,114.63 C70.45,114.21 71.00,114.37 71.00,115.00 Z" fill="rgb(59,47,106)"/>
<path d="M 59.25 46.79 L 72.00 47.00 L 72.00 48.00 L 37.00 48.00 L 37.00 81.05 C37.00,52.34 36.80,48.00 35.50,48.00 C35.44,48.00 35.38,48.00 35.33,48.00 C35.15,47.99 34.99,47.99 34.85,48.04 C33.78,48.41 33.79,51.90 33.92,82.12 C33.93,83.36 33.93,84.65 33.94,85.98 C34.05,110.76 34.30,115.59 35.53,116.28 C36.34,116.73 37.00,117.79 37.00,118.64 C37.00,120.43 40.41,123.60 44.00,125.14 C47.74,126.75 57.25,126.90 58.77,125.37 C59.48,124.66 60.79,124.37 61.69,124.71 C62.62,125.07 63.07,124.92 62.74,124.38 C62.41,123.86 63.01,123.43 64.07,123.43 C66.15,123.43 66.62,124.50 64.98,125.51 C64.42,125.86 64.20,126.51 64.48,126.97 C64.77,127.43 63.63,128.28 61.96,128.86 C60.17,129.49 59.17,129.53 59.52,128.96 C59.85,128.43 59.69,128.00 59.17,128.00 C58.64,128.00 57.96,128.67 57.64,129.48 C57.32,130.33 56.41,130.71 55.54,130.38 C54.69,130.05 54.00,130.17 54.00,130.64 C54.00,132.08 38.81,132.11 34.74,130.68 C32.67,129.95 31.32,128.98 31.74,128.52 C32.16,128.06 31.80,127.93 30.94,128.23 C29.98,128.58 27.92,127.31 25.52,124.89 C23.39,122.75 21.33,121.00 20.95,121.00 C20.57,121.00 20.17,104.48 20.07,84.29 C19.95,59.67 19.54,47.15 18.81,46.27 C18.05,45.35 16.31,45.16 12.92,45.61 C10.27,45.96 6.92,45.95 5.46,45.58 C3.29,45.03 3.04,44.66 4.03,43.46 C4.70,42.66 5.78,42.00 6.43,42.00 C7.09,42.00 8.53,41.16 9.64,40.12 C10.75,39.09 12.61,37.94 13.78,37.57 C20.16,35.55 29.00,21.03 29.50,11.76 C29.64,9.14 30.24,6.41 30.84,5.70 C31.43,4.98 31.66,3.41 31.34,2.20 C31.03,0.99 31.22,0.00 31.78,0.00 C33.02,0.00 34.00,11.95 33.90,25.75 C33.84,32.66 33.45,36.00 32.69,36.00 C32.06,36.00 32.57,37.01 33.81,38.25 C35.97,40.41 36.66,40.49 51.48,40.27 C60.88,40.12 67.14,40.42 67.52,41.02 C67.85,41.57 67.85,42.90 67.51,43.97 C66.95,45.72 65.78,45.97 56.69,46.25 L 46.50 46.58 ZM 161.04 165.50 C161.03,179.60 161.23,191.18 161.57,197.44 C161.22,191.13 161.01,179.43 161.01,165.25 L 161.00 132.00 L 142.00 132.00 L 142.00 131.50 L 151.09 131.18 C160.81,130.83 162.53,129.50 153.26,129.50 C148.84,129.50 147.66,129.16 147.46,127.82 C147.17,125.97 149.56,124.61 151.24,125.65 C151.83,126.01 152.02,125.84 151.67,125.27 C151.31,124.70 152.36,123.68 153.99,123.01 C155.61,122.33 158.15,120.74 159.62,119.48 C161.10,118.21 163.02,117.41 163.90,117.68 C165.29,118.12 165.30,118.05 164.00,117.11 C162.69,116.17 162.71,116.03 164.15,116.02 C165.06,116.01 166.67,114.23 167.76,112.03 C168.84,109.84 170.01,108.34 170.36,108.69 C170.71,109.05 171.00,108.41 171.00,107.29 C171.00,106.16 171.70,104.67 172.55,103.96 C173.40,103.26 173.85,102.05 173.56,101.29 C173.22,100.41 173.45,100.16 174.18,100.61 C175.00,101.12 175.10,100.76 174.53,99.41 C174.08,98.36 173.50,96.22 173.23,94.65 C172.83,92.28 173.06,91.86 174.62,92.16 C176.10,92.44 176.57,93.56 176.81,97.47 C177.03,100.96 177.40,101.99 178.05,100.96 C178.82,99.75 178.70,108.61 177.82,118.00 C177.40,122.57 178.04,124.00 180.50,124.00 C181.88,124.00 183.00,124.48 183.00,125.06 C183.00,125.64 183.44,125.85 183.97,125.52 C185.47,124.59 203.99,123.78 207.70,124.47 C210.02,124.91 211.00,125.64 211.00,126.94 C211.00,129.67 209.18,130.00 194.25,130.00 C183.01,130.00 180.34,130.29 178.83,131.65 C177.14,133.18 177.00,135.47 177.00,161.95 C177.00,178.64 177.40,191.00 177.95,191.55 C178.47,192.07 179.01,194.41 179.14,196.75 C179.28,199.09 179.70,201.00 180.09,201.00 C180.47,201.00 181.47,202.72 182.31,204.82 C183.98,209.00 187.11,210.48 196.64,211.58 C199.31,211.89 201.95,212.62 202.50,213.22 C203.19,213.95 203.11,214.08 202.27,213.60 C201.60,213.22 199.72,213.89 198.10,215.09 C195.94,216.68 194.40,217.09 192.33,216.60 C190.77,216.24 187.18,215.84 184.33,215.70 C180.87,215.54 178.42,214.81 176.91,213.48 C175.59,212.32 175.02,212.12 175.52,213.00 C176.00,213.82 174.71,213.04 172.66,211.25 C170.61,209.46 168.32,208.00 167.58,208.00 C166.17,208.00 164.92,205.25 164.38,201.00 C164.21,199.62 164.07,184.54 164.07,167.49 C164.07,141.45 163.83,136.16 162.57,134.49 C161.22,132.71 161.06,135.93 161.04,165.50 ZM 198.02 122.77 L 180.50 122.50 L 198.25 122.77 L 216.00 123.05 L 216.00 132.00 L 179.98 132.00 L 179.97 131.00 L 214.79 131.00 L 215.55 123.04 ZM 39.55 118.84 C39.53,118.81 39.50,118.79 39.48,118.76 C38.09,117.26 36.97,115.81 36.98,115.52 C36.99,115.24 37.00,100.33 37.00,82.23 C37.00,107.90 37.04,115.12 39.55,118.84 ZM 71.00 115.00 C71.00,114.37 70.45,114.21 69.75,114.63 C68.90,115.14 68.94,114.84 69.87,113.69 C70.63,112.76 71.64,112.00 72.12,112.00 C73.33,112.00 73.23,114.74 72.00,115.50 C71.45,115.84 71.00,115.61 71.00,115.00 ZM 40.59 120.08 C41.43,120.90 42.47,121.60 43.74,122.47 C45.73,123.82 47.94,124.61 50.23,124.87 C45.54,124.55 42.00,123.64 42.00,122.61 C42.00,122.17 41.42,121.16 40.59,120.08 ZM 78.99 101.49 C78.99,101.78 78.99,102.09 78.99,102.42 C78.97,106.70 73.96,119.44 70.21,124.70 C69.24,126.07 66.42,128.30 63.50,130.09 C65.05,129.04 65.88,128.13 65.69,127.62 C65.39,126.84 66.02,126.39 67.35,126.43 C71.06,126.55 78.53,109.45 78.99,101.49 ZM 18.45 118.68 C18.32,118.28 18.20,117.89 18.10,117.50 C17.41,114.75 17.00,100.99 17.00,80.56 L 17.00 48.00 L 17.08 81.25 C17.13,102.61 17.45,113.64 18.45,118.68 ZM 180.88 194.84 C181.20,198.35 181.70,199.54 182.55,201.00 C183.86,203.22 185.47,204.98 187.27,206.29 C187.07,206.17 186.87,206.04 186.67,205.91 C184.10,204.20 182.25,202.40 182.56,201.91 C182.87,201.41 182.72,201.00 182.23,201.00 C181.47,201.00 181.11,200.86 180.88,194.84 ZM 52.08 124.96 C56.36,124.91 60.74,123.05 64.24,119.52 C64.81,118.94 65.27,118.41 65.62,117.90 C63.57,121.45 58.17,125.00 53.67,124.99 C53.13,124.99 52.60,124.98 52.08,124.96 ZM 150.77 122.62 C163.00,117.81 170.29,106.46 172.52,88.75 C171.23,99.00 168.77,106.09 164.49,111.91 C160.28,117.62 156.90,120.36 150.77,122.62 ZM 21.53 124.39 C20.98,123.65 20.47,122.89 20.02,122.12 C20.29,122.27 20.58,122.30 20.90,122.23 C21.59,122.07 21.84,122.44 21.47,123.06 C21.26,123.39 21.29,123.85 21.53,124.39 ZM 195.98 209.07 C200.79,208.99 205.74,206.52 209.47,201.63 C205.64,206.65 200.94,209.16 195.98,209.07 ZM 57.20 133.31 C54.44,134.37 52.03,134.47 46.00,134.48 C41.75,134.49 39.06,134.37 36.79,133.95 C39.05,134.36 41.75,134.47 46.00,134.46 C51.93,134.44 54.53,134.27 57.20,133.31 ZM 75.76 97.71 C77.78,97.34 78.55,97.46 78.84,99.09 C78.80,98.94 78.75,98.80 78.70,98.67 C78.36,97.78 77.30,97.44 75.76,97.71 ZM 142.07 127.09 C142.28,125.67 143.05,125.14 145.91,124.22 C143.09,125.16 142.29,125.71 142.07,127.09 ZM 72.86 99.64 C73.60,98.55 74.48,97.95 75.56,97.74 C75.58,97.74 75.60,97.74 75.63,97.73 C74.51,97.95 73.61,98.54 72.86,99.64 ZM 32.06 132.48 C31.78,132.36 31.50,132.24 31.21,132.10 C30.35,131.72 29.52,131.28 28.72,130.80 C29.58,131.30 30.47,131.77 31.37,132.17 C31.60,132.28 31.83,132.38 32.06,132.48 ZM 66.34 112.83 C66.51,112.30 66.98,111.98 67.79,111.77 C67.00,111.97 66.53,112.31 66.34,112.83 Z" fill="rgb(60,51,130)"/>
<path d="M 78.99 101.49 C79.04,100.55 78.99,99.73 78.84,99.09 C78.55,97.46 77.78,97.34 75.76,97.71 C75.72,97.71 75.69,97.72 75.66,97.73 C75.60,97.74 75.58,97.74 75.56,97.74 C74.48,97.95 73.60,98.55 72.86,99.64 L 72.86 99.64 C71.82,101.15 71.06,103.62 70.41,107.38 C69.94,110.03 69.11,111.42 67.79,111.77 C67.00,111.97 66.53,112.30 66.34,112.83 C66.19,113.23 66.21,113.74 66.37,114.39 C66.63,115.46 66.32,116.68 65.62,117.90 C65.27,118.41 64.81,118.94 64.24,119.52 C63.96,119.80 63.67,120.07 63.37,120.34 C63.53,120.18 63.69,120.03 63.85,119.87 C65.95,117.68 66.21,116.41 66.35,107.96 C66.48,100.02 66.93,97.59 69.16,92.82 C72.88,84.88 79.03,78.60 86.86,74.75 C93.15,71.65 94.01,71.50 104.98,71.50 L 116.50 71.50 L 124.72 75.68 L 132.95 79.85 L 136.06 75.92 C139.17,72.00 143.39,69.97 144.99,71.62 C145.46,72.11 146.37,81.13 147.02,91.68 C147.67,102.23 148.27,111.68 148.35,112.68 C148.47,114.10 147.66,114.57 144.72,114.81 C141.19,115.10 140.85,114.88 139.37,111.31 C129.83,88.28 121.33,80.99 104.00,81.01 C93.68,81.02 86.84,83.72 82.41,89.53 C80.06,92.61 79.48,94.49 79.17,100.02 C78.80,106.59 78.88,106.86 82.42,110.78 C87.67,116.59 93.31,118.80 112.47,122.55 C130.14,126.01 135.13,127.38 138.47,129.66 C141.24,131.54 141.95,131.35 142.00,128.50 L 142.00 131.50 L 142.00 131.50 L 142.00 132.00 L 142.85 132.00 L 145.87 134.55 C152.33,139.98 156.63,154.28 154.95,164.79 C153.21,175.71 147.51,184.71 138.26,191.14 C123.33,201.51 103.17,200.74 85.63,189.14 L 81.72 186.55 L 77.86 191.03 C75.74,193.49 74.00,195.84 74.00,196.25 C74.00,196.66 72.26,197.00 70.13,197.00 L 66.26 197.00 L 65.60 181.75 C65.24,173.36 64.68,162.56 64.34,157.75 L 63.74 149.00 L 67.89 149.00 C71.48,149.00 72.19,149.37 73.16,151.75 C80.69,170.33 87.77,179.77 97.89,184.75 C102.93,187.22 104.57,187.50 114.00,187.50 C122.85,187.50 125.13,187.16 128.50,185.34 C139.51,179.40 143.94,167.76 138.72,158.53 C134.78,151.57 131.88,150.31 108.50,145.42 C86.86,140.90 77.07,136.03 70.85,126.69 C70.47,126.11 69.04,126.54 67.35,127.73 C63.82,130.22 61.15,131.82 58.40,132.84 C59.15,132.51 59.94,132.12 60.83,131.65 C61.86,131.12 62.76,130.59 63.50,130.09 C66.42,128.30 69.24,126.07 70.21,124.70 C73.96,119.44 78.97,106.70 78.99,102.42 C78.99,102.09 78.99,101.78 78.99,101.49 ZM 102.50 194.58 C118.20,198.16 133.10,193.64 144.13,181.96 C149.67,176.10 149.80,175.83 151.48,166.48 C153.19,156.99 153.19,156.96 150.84,149.39 C147.29,137.90 138.71,130.33 126.75,128.12 C123.58,127.54 120.21,126.66 119.25,126.16 C118.29,125.66 114.80,124.93 111.50,124.54 C101.79,123.39 94.04,121.29 87.44,118.04 C84.04,116.37 80.86,115.00 80.38,115.00 C79.89,115.00 78.25,116.98 76.73,119.39 C74.34,123.18 74.11,124.16 75.05,126.63 C75.65,128.21 76.88,130.31 77.78,131.31 C80.20,133.98 93.24,140.00 96.60,140.00 C98.20,140.00 102.20,140.87 105.50,141.94 C108.80,143.01 115.77,144.85 120.98,146.03 C126.19,147.22 131.65,148.80 133.11,149.56 C143.89,155.13 146.05,172.60 137.03,181.35 C129.93,188.24 126.96,189.27 114.00,189.34 C100.42,189.41 95.19,188.12 90.66,183.59 C88.83,181.76 86.19,179.52 84.81,178.61 C83.43,177.71 81.44,175.29 80.40,173.23 C79.35,171.18 77.52,167.93 76.33,166.00 C75.14,164.08 73.60,160.58 72.92,158.24 C71.36,152.87 69.47,151.10 67.46,153.11 C65.39,155.18 66.89,190.32 69.15,192.57 C71.12,194.55 73.70,193.47 75.55,189.91 C78.23,184.72 79.88,184.64 89.12,189.26 C93.73,191.56 99.75,193.96 102.50,194.58 ZM 141.24 110.75 C142.66,112.52 144.95,112.30 145.71,110.32 C146.34,108.68 144.36,81.21 143.37,77.75 C142.60,75.07 138.50,75.58 136.53,78.60 C135.04,80.87 134.38,81.11 131.21,80.51 C129.22,80.14 125.96,79.00 123.97,77.98 C121.98,76.97 116.85,75.24 112.57,74.14 C105.41,72.31 104.26,72.26 98.02,73.56 C89.83,75.27 79.97,80.25 78.22,83.57 C77.51,84.91 76.51,86.00 75.99,86.00 C74.84,86.00 72.00,91.31 72.00,93.45 C72.00,97.42 78.30,92.62 81.14,86.50 C83.27,81.90 91.83,79.13 104.00,79.09 C114.84,79.06 118.99,80.56 127.34,87.50 C131.84,91.25 137.36,100.13 139.49,107.03 C139.90,108.39 140.69,110.06 141.24,110.75 ZM 203.72 216.01 C208.01,214.12 213.11,209.96 216.03,206.17 C215.11,207.42 213.90,208.69 212.33,210.20 C207.09,215.26 202.04,217.61 194.40,218.26 C197.97,217.83 201.33,217.06 203.72,216.01 ZM 52.08 124.96 C51.45,124.94 50.83,124.91 50.23,124.87 C47.94,124.61 45.73,123.82 43.74,122.47 C46.89,124.61 50.76,125.33 54.50,124.74 C53.69,124.88 52.88,124.95 52.08,124.96 ZM 218.58 199.90 C218.86,197.78 219.00,194.98 219.00,191.55 C219.00,195.13 218.91,197.77 218.58,199.90 ZM 162.05 202.25 C162.77,204.80 164.26,207.30 166.29,209.53 C164.22,207.30 162.77,204.84 162.06,202.28 C162.06,202.27 162.06,202.26 162.05,202.25 ZM 178.41 217.26 C179.22,217.52 180.04,217.74 180.88,217.93 C180.02,217.76 179.23,217.54 178.41,217.26 ZM 142.07 127.09 C142.03,127.39 142.01,127.74 142.00,128.13 C142.00,127.40 142.05,126.84 142.25,126.38 C142.17,126.59 142.11,126.83 142.07,127.09 ZM 37.03 134.00 C36.87,133.97 36.72,133.94 36.57,133.91 C36.65,133.93 36.72,133.94 36.79,133.95 C36.87,133.97 36.95,133.98 37.03,134.00 Z" fill="rgb(183,49,58)"/>
<path d="M 102.50 194.58 C99.75,193.96 93.73,191.56 89.12,189.26 C79.88,184.64 78.23,184.72 75.55,189.91 C73.70,193.47 71.12,194.55 69.15,192.57 C66.89,190.32 65.39,155.18 67.46,153.11 C69.47,151.10 71.36,152.87 72.92,158.24 C73.60,160.58 75.14,164.08 76.33,166.00 C77.52,167.93 79.35,171.18 80.40,173.23 C81.44,175.29 83.43,177.71 84.81,178.61 C86.19,179.52 88.83,181.76 90.66,183.59 C95.19,188.12 100.42,189.41 114.00,189.34 C126.96,189.27 129.93,188.24 137.03,181.35 C146.05,172.60 143.89,155.13 133.11,149.56 C131.65,148.80 126.19,147.22 120.98,146.03 C115.77,144.85 108.80,143.01 105.50,141.94 C102.20,140.87 98.20,140.00 96.60,140.00 C93.24,140.00 80.20,133.98 77.78,131.31 C76.88,130.31 75.65,128.21 75.05,126.63 C74.11,124.16 74.34,123.18 76.73,119.39 C78.25,116.98 79.89,115.00 80.38,115.00 C80.86,115.00 84.04,116.37 87.44,118.04 C94.04,121.29 101.79,123.39 111.50,124.54 C114.80,124.93 118.29,125.66 119.25,126.16 C120.21,126.66 123.58,127.54 126.75,128.12 C138.71,130.33 147.29,137.90 150.84,149.39 C153.19,156.96 153.19,156.99 151.48,166.48 C149.80,175.83 149.67,176.10 144.13,181.96 C133.10,193.64 118.20,198.16 102.50,194.58 ZM 141.24 110.75 C140.69,110.06 139.90,108.39 139.49,107.03 C137.36,100.13 131.84,91.25 127.34,87.50 C118.99,80.56 114.84,79.06 104.00,79.09 C91.83,79.13 83.27,81.90 81.14,86.50 C78.30,92.62 72.00,97.42 72.00,93.45 C72.00,91.31 74.84,86.00 75.99,86.00 C76.51,86.00 77.51,84.91 78.22,83.57 C79.97,80.25 89.83,75.27 98.02,73.56 C104.26,72.26 105.41,72.31 112.57,74.14 C116.85,75.24 121.98,76.97 123.97,77.98 C125.96,79.00 129.22,80.14 131.21,80.51 C134.38,81.11 135.04,80.87 136.53,78.60 C138.50,75.58 142.60,75.07 143.37,77.75 C144.36,81.21 146.34,108.68 145.71,110.32 C144.95,112.30 142.66,112.52 141.24,110.75 Z" fill="rgb(219,33,40)"/>
<path d="M 0.00 136.50 L 0.00 48.00 L 8.50 48.00 L 17.00 48.00 L 17.00 80.56 C17.00,100.99 17.41,114.75 18.10,117.50 C19.59,123.42 24.79,129.21 31.21,132.10 C35.62,134.09 38.09,134.49 46.00,134.46 C55.87,134.43 59.45,133.30 67.35,127.73 C69.04,126.54 70.47,126.11 70.85,126.69 C77.07,136.03 86.86,140.90 108.50,145.42 C131.88,150.31 134.78,151.57 138.72,158.53 C143.94,167.76 139.51,179.40 128.50,185.34 C125.13,187.16 122.85,187.50 114.00,187.50 C104.57,187.50 102.93,187.22 97.89,184.75 C87.77,179.77 80.69,170.33 73.16,151.75 C72.19,149.37 71.48,149.00 67.89,149.00 L 63.74 149.00 L 64.34 157.75 C64.68,162.56 65.24,173.36 65.60,181.75 L 66.26 197.00 L 70.13 197.00 C72.26,197.00 74.00,196.66 74.00,196.25 C74.00,195.84 75.74,193.49 77.86,191.03 L 81.72 186.55 L 85.63 189.14 C103.17,200.74 123.33,201.51 138.26,191.14 C147.51,184.71 153.21,175.71 154.95,164.79 C156.63,154.28 152.33,139.98 145.87,134.55 L 142.85 132.00 L 151.92 132.00 L 161.00 132.00 L 161.01 165.25 C161.01,185.37 161.43,199.99 162.06,202.28 C163.53,207.56 168.16,212.44 174.77,215.68 C179.66,218.07 181.62,218.44 189.46,218.44 C200.01,218.45 206.04,216.28 212.33,210.20 C218.20,204.53 219.00,202.30 219.00,191.55 C219.00,182.67 218.86,182.00 217.00,182.00 C215.40,182.00 215.00,182.67 215.00,185.34 C215.00,190.32 212.52,197.63 209.47,201.63 C201.71,211.80 188.72,211.50 182.55,201.00 C180.61,197.69 180.49,195.73 180.24,164.75 L 179.98 132.00 L 197.99 132.00 L 216.00 132.00 L 216.00 127.52 L 216.00 123.05 L 198.25 122.77 L 180.50 122.50 L 180.50 103.25 L 180.50 84.00 L 176.81 84.00 C173.16,84.00 173.12,84.05 172.52,88.75 C170.13,107.73 161.92,119.41 148.05,123.57 C142.51,125.22 142.00,125.62 142.00,128.19 C142.00,131.34 141.34,131.61 138.47,129.66 C135.13,127.38 130.14,126.01 112.47,122.55 C93.31,118.80 87.67,116.59 82.42,110.78 C78.88,106.86 78.80,106.59 79.17,100.02 C79.48,94.49 80.06,92.61 82.41,89.53 C86.84,83.72 93.68,81.02 104.00,81.01 C121.33,80.99 129.83,88.28 139.37,111.31 C140.85,114.88 141.19,115.10 144.72,114.81 C147.66,114.57 148.47,114.10 148.35,112.68 C148.27,111.68 147.67,102.23 147.02,91.68 C146.37,81.13 145.46,72.11 144.99,71.62 C143.39,69.97 139.17,72.00 136.06,75.92 L 132.95 79.85 L 124.72 75.68 L 116.50 71.50 L 104.98 71.50 C94.01,71.50 93.15,71.65 86.86,74.75 C79.03,78.60 72.88,84.88 69.16,92.82 C66.93,97.59 66.48,100.02 66.35,107.96 C66.21,116.41 65.95,117.68 63.85,119.87 C58.47,125.46 49.79,126.58 43.74,122.47 C37.00,117.89 37.00,117.87 37.00,81.05 L 37.00 48.00 L 54.50 48.00 L 72.00 48.00 L 72.00 43.50 L 72.00 39.00 L 54.50 39.00 L 37.00 39.00 L 37.00 19.50 L 37.00 0.00 L 131.00 0.00 L 225.00 0.00 L 225.00 112.50 L 225.00 225.00 L 112.50 225.00 L 0.00 225.00 L 0.00 136.50 ZM 0.00 20.52 L 0.00 0.00 L 14.50 0.00 C31.01,0.00 29.71,-0.96 27.93,9.98 C25.44,25.33 15.52,37.31 2.75,40.38 L 0.00 41.04 L 0.00 20.52 Z" fill="rgb(253,252,252)"/>
</g>
</svg>